Coordinates
version=1
nRows=13
nColumns=38
inDegrees=no

Units are S.I. units (second, meters, Newtons, ...)
If the header above contains a line with 'inDegrees', this indicates whether rotational values are in degrees (yes) or radians (no).

endheader
time	pelvis_tilt	pelvis_list	pelvis_rotation	pelvis_tx	pelvis_ty	pelvis_tz	hip_flexion_r	hip_adduction_r	hip_rotation_r	knee_angle_r	ankle_angle_r	subtalar_angle_r	mtp_angle_r	hip_flexion_l	hip_adduction_l	hip_rotation_l	knee_angle_l	ankle_angle_l	subtalar_angle_l	mtp_angle_l	lumbar_extension	lumbar_bending	lumbar_rotation	arm_flex_r	arm_add_r	arm_rot_r	elbow_flex_r	pro_sup_r	wrist_flex_r	wrist_dev_r	arm_flex_l	arm_add_l	arm_rot_l	elbow_flex_l	pro_sup_l	wrist_flex_l	wrist_dev_l
5	2.97021	1.5049	-1.26982	0.677626	-0.29079	1.08398	-0.0212698	-0.0385088	-0.136327	0.316814	-0.256646	0	0	-0.0484183	-0.113575	-0.339258	0.388036	-0.259411	0	0	-0.417251	0.0428557	-0.0788257	0.942985	-0.387934	1.14728	0.731851	0.547207	0	0	0.54579	-0.576525	0.555916	1.04865	0.815232	0	0
5.01	2.96466	1.50514	-1.26392	0.677337	-0.290671	1.08398	-0.0212177	-0.0383052	-0.136425	0.316748	-0.256679	0	0	-0.0484214	-0.113683	-0.339612	0.387657	-0.259635	0	0	-0.421522	0.0432421	-0.0778275	0.950529	-0.383986	1.14819	0.723148	0.542428	0	0	0.556012	-0.572957	0.559704	1.04059	0.818004	0	0
5.02	2.95998	1.50542	-1.25889	0.677068	-0.290579	1.08398	-0.0210355	-0.0380708	-0.136369	0.316864	-0.256657	0	0	-0.048166	-0.113767	-0.33982	0.387715	-0.259715	0	0	-0.425559	0.0435054	-0.0767358	0.957874	-0.380389	1.14959	0.714715	0.540128	0	0	0.566422	-0.569109	0.563679	1.03209	0.820783	0	0
5.03	2.95677	1.50571	-1.25547	0.676785	-0.29044	1.08397	-0.0207358	-0.0381218	-0.136483	0.31715	-0.256933	0	0	-0.0480626	-0.113737	-0.340303	0.387707	-0.259727	0	0	-0.429141	0.0435404	-0.0754136	0.964848	-0.377074	1.15207	0.706199	0.54018	0	0	0.57695	-0.565011	0.568023	1.02299	0.823713	0	0
5.04	2.95445	1.50601	-1.25288	0.676463	-0.290258	1.08397	-0.0203813	-0.0385271	-0.136884	0.317393	-0.257442	0	0	-0.0481305	-0.113552	-0.340857	0.387339	-0.259856	0	0	-0.432444	0.0434522	-0.074108	0.970997	-0.373895	1.15439	0.697657	0.541457	0	0	0.587503	-0.560714	0.572227	1.01343	0.826815	0	0
5.05	2.95065	1.50653	-1.24873	0.676153	-0.290098	1.08395	-0.0198127	-0.038806	-0.137052	0.317592	-0.257796	0	0	-0.0478795	-0.11335	-0.341036	0.386901	-0.260116	0	0	-0.43591	0.0434968	-0.0731797	0.976544	-0.370604	1.15481	0.689538	0.5425	0	0	0.597676	-0.556934	0.57538	1.0045	0.828957	0	0
5.06	2.94758	1.50712	-1.24539	0.675886	-0.289921	1.08394	-0.0193167	-0.0389697	-0.137086	0.317612	-0.257922	0	0	-0.0478467	-0.112934	-0.340782	0.385803	-0.260601	0	0	-0.439522	0.0433819	-0.0722474	0.981558	-0.367366	1.15408	0.681837	0.54468	0	0	0.607958	-0.553432	0.578378	0.995853	0.830352	0	0
5.07	2.94375	1.50751	-1.24123	0.675607	-0.289778	1.08394	-0.0190282	-0.0389742	-0.137122	0.317634	-0.257656	0	0	-0.0477251	-0.112784	-0.340941	0.385423	-0.260464	0	0	-0.443769	0.0437953	-0.072585	0.988943	-0.363409	1.15903	0.67436	0.539932	0	0	0.616332	-0.55117	0.578592	0.989684	0.8297	0	0
5.08	2.94029	1.5076	-1.2374	0.675336	-0.289639	1.08399	-0.0191123	-0.0389421	-0.137269	0.317501	-0.257504	0	0	-0.0481483	-0.112555	-0.340521	0.384326	-0.260961	0	0	-0.447607	0.0437117	-0.0715958	0.99435	-0.360273	1.16133	0.666717	0.543071	0	0	0.627101	-0.54744	0.58222	0.980793	0.830999	0	0
5.09	2.93409	1.50797	-1.23084	0.675061	-0.289481	1.08398	-0.0188861	-0.0388117	-0.137128	0.317344	-0.257606	0	0	-0.0481062	-0.112503	-0.340178	0.383653	-0.261145	0	0	-0.451387	0.0436752	-0.0707281	0.999347	-0.357402	1.16102	0.660011	0.54449	0	0	0.637311	-0.544108	0.585527	0.973125	0.832064	0	0
5.1	2.92615	1.50866	-1.22258	0.674772	-0.289288	1.08392	-0.0183656	-0.0386889	-0.13704	0.317112	-0.257722	0	0	-0.0476717	-0.112462	-0.339934	0.383133	-0.261208	0	0	-0.454923	0.0439951	-0.0701794	1.00437	-0.354358	1.15942	0.653607	0.543637	0	0	0.646508	-0.541035	0.587882	0.966243	0.832995	0	0
5.11	2.91874	1.509	-1.2149	0.674482	-0.289121	1.08391	-0.018233	-0.0384971	-0.136932	0.316744	-0.258016	0	0	-0.0474689	-0.112504	-0.339808	0.38284	-0.261106	0	0	-0.458396	0.0444212	-0.0692074	1.00926	-0.351129	1.15862	0.64622	0.543358	0	0	0.656171	-0.537017	0.590397	0.957778	0.834656	0	0
5.12	2.91115	1.50933	-1.20705	0.67419	-0.288942	1.08389	-0.0181612	-0.0383381	-0.136885	0.316302	-0.258445	0	0	-0.0471872	-0.112663	-0.340092	0.382831	-0.260988	0	0	-0.461692	0.0447653	-0.0681046	1.01427	-0.348276	1.15944	0.639226	0.544448	0	0	0.665804	-0.533153	0.593235	0.949436	0.836717	0	0
